<svg xmlns="http://www.w3.org/2000/svg" width="96" height="96" viewBox="0 0 96 96" shape-rendering="crispEdges">
  <rect width="96" height="96" fill="none"/>
  <rect x="62" y="12" width="8" height="8" fill="#fff3b0"/>
  <rect x="54" y="20" width="8" height="8" fill="#ffd15a"/>
  <rect x="46" y="28" width="8" height="8" fill="#ff8a24"/>
  <rect x="38" y="36" width="8" height="8" fill="#f04425"/>
  <rect x="30" y="44" width="8" height="8" fill="#b91c1c"/>
  <rect x="22" y="52" width="8" height="8" fill="#7f1d1d"/>
  <rect x="18" y="62" width="10" height="6" fill="#fff3b0"/>
  <rect x="30" y="58" width="16" height="6" fill="#ffd15a"/>
  <rect x="48" y="52" width="14" height="6" fill="#ff8a24"/>
  <rect x="64" y="46" width="8" height="6" fill="#f04425"/>
  <rect x="70" y="26" width="6" height="6" fill="#ffd15a"/>
  <rect x="78" y="34" width="5" height="5" fill="#ff8a24"/>
  <rect x="15" y="39" width="5" height="5" fill="#ff8a24"/>
  <rect x="26" y="29" width="4" height="4" fill="#fff3b0"/>
</svg>
